<svg xmlns="http://www.w3.org/2000/svg" width="32" height="32"><path d="M8.93 0C7.886 0 7 .81 7 1.838v28.324C7 31.19 7.886 32 8.93 32h15.14c1.044 0 1.93-.81 1.93-1.838V1.838C26 .81 25.114 0 24.07 0H8.93zm0 1h15.14c.542 0 .93.384.93.838v28.324c0 .455-.388.838-.93.838H8.93c-.542 0-.93-.383-.93-.838V1.838C8 1.384 8.388 1 8.93 1zm8.855.998-3.574.01.004 1 3.574-.01-.004-1zm-8.32.012A.5.495 0 0 0 9 2.504.5.495 0 0 0 9.5 3a.5.495 0 0 0 .5-.496.5.495 0 0 0-.5-.494.5.495 0 0 0-.035 0zM9 4v22h15V4H9zm1 1h13v20H10V5zm3 6a1 1 0 1 0 0 2 1 1 0 0 0 0-2zm7 0a1 1 0 1 0 0 2 1 1 0 0 0 0-2zm-5.996 6v.01A2.5 2.5 0 0 0 19 17.006L14.004 17zm2.486 10c-.825 0-1.51.675-1.51 1.5s.685 1.5 1.51 1.5c.826 0 1.51-.675 1.51-1.5s-.684-1.5-1.51-1.5zm0 1c.29 0 .51.22.51.5s-.22.5-.51.5c-.29 0-.51-.22-.51-.5s.22-.5.51-.5z" color="#000" font-family="sans-serif" font-weight="400" overflow="visible" style="line-height:normal;text-indent:0;text-align:start;text-decoration-line:none;text-decoration-style:solid;text-decoration-color:#000;text-transform:none;block-progression:tb;white-space:normal;isolation:auto;mix-blend-mode:normal;solid-color:#000;solid-opacity:1"/></svg>